<?xml version="1.0" encoding="utf-8"?>
<!-- Generator: Adobe Illustrator 16.0.0, SVG Export Plug-In . SVG Version: 6.00 Build 0)  -->
<!DOCTYPE svg PUBLIC "-//W3C//DTD SVG 1.1//EN" "http://www.w3.org/Graphics/SVG/1.1/DTD/svg11.dtd">
<svg version="1.1" id="Layer_1" xmlns="http://www.w3.org/2000/svg" xmlns:xlink="http://www.w3.org/1999/xlink" x="0px" y="0px"
	 width="252px" height="20px" viewBox="0 0 252 20" enable-background="new 0 0 252 20" xml:space="preserve">
<g>
	<polygon fill="#231F20" points="61.917,2.369 55.543,2.369 55.543,5.655 61.917,5.655 61.917,17.618 67.439,17.618 67.439,5.655 
		73.815,5.655 73.815,2.369 67.439,2.369 	"/>
	<path fill="#231F20" d="M189.796,2.369h-3.56h-0.675l-7.845,15.249h4.23l1.225-2.373h7.524l1.248,2.373h6.101l-7.85-15.249H189.796
		z M184.863,11.954l2.027-3.939l2.073,3.939H184.863z"/>
	<polygon fill="#231F20" points="162.428,2.369 156.904,2.369 156.904,17.618 162.054,17.618 162.428,17.618 171.232,17.618 
		171.232,14.327 162.428,14.327 	"/>
	<polygon fill="#231F20" points="218.286,11.803 209.481,2.462 209.481,2.369 204.332,2.369 204.332,17.618 209.481,17.618 
		209.481,8.204 218.286,17.544 218.286,17.618 218.354,17.618 218.368,17.634 218.379,17.618 223.438,17.618 223.438,2.366 
		218.286,2.369 	"/>
	<path fill="#231F20" d="M41.109,1.782c-6.54,0-10.299,3.678-10.299,8.22c0,4.536,3.706,8.216,10.299,8.216
		c6.59,0,10.301-3.68,10.301-8.216C51.41,5.46,47.699,1.782,41.109,1.782z M46.254,10.002c0,1.142-0.501,2.237-1.403,3.079
		c-0.986,0.914-2.315,1.414-3.741,1.414c-1.425,0-2.751-0.5-3.736-1.414c-0.906-0.842-1.405-1.938-1.405-3.079
		c0-1.148,0.499-2.243,1.405-3.082c0.985-0.915,2.312-1.416,3.736-1.416c1.426,0,2.755,0.501,3.741,1.416
		C45.753,7.759,46.254,8.854,46.254,10.002z"/>
	<polygon fill="#231F20" points="94.407,8.026 85.599,8.036 85.599,2.369 80.451,2.369 80.451,17.618 85.599,17.618 85.599,11.974 
		94.407,11.966 94.407,17.618 99.557,17.618 99.557,2.369 94.407,2.369 	"/>
	<polygon fill="#231F20" points="19.155,2.369 17.181,2.369 12.814,12.226 8.448,2.369 6.475,2.369 3.673,2.369 1.323,2.369 
		1.323,17.618 6.475,17.618 6.475,8.69 10.425,17.618 15.2,17.618 19.155,8.687 19.155,17.618 24.307,17.618 24.307,2.369 
		21.957,2.369 	"/>
	<path fill="#231F20" d="M148.792,6.821c0-2.461-1.997-4.461-4.462-4.461c-0.129,0-0.254,0.009-0.378,0.018l0.009-0.009h-7.104
		h-2.581h-2.57v15.249h5.151v-6.341h3.59l3.442,6.341h5.149l-3.529-6.496C147.404,10.603,148.792,8.879,148.792,6.821z
		 M136.856,6.029h3.161h1.254h1.677c0.642,0,1.168,0.521,1.168,1.165c0,0.648-0.526,1.169-1.168,1.169h-1.677h-1.254h-3.161V6.029z"
		/>
	<polygon fill="#231F20" points="110.872,2.369 108.115,2.369 108.115,17.618 113.636,17.618 113.636,17.601 123.992,17.601 
		123.992,13.632 113.636,13.632 113.636,11.612 120.628,11.612 120.628,8.34 113.636,8.34 113.636,6.332 123.992,6.332 
		123.992,2.36 110.872,2.36 	"/>
	<path fill="#231F20" d="M241.146,2.366h-3.995h-0.374h-5.146v15.252h5.146h0.374h3.995l-0.007-0.096l0.007,0.078
		c6.096,0,9.53-3.404,9.53-7.605C250.677,5.795,247.242,2.366,241.146,2.366z M240.809,13.958h-3.657V6.029h3.657
		c2.076,0,3.903,0.941,3.903,3.966C244.712,13.019,242.965,13.958,240.809,13.958z"/>
</g>
</svg>
