<?xml version="1.0" encoding="utf-8"?>
<!-- Generator: Adobe Illustrator 16.0.0, SVG Export Plug-In . SVG Version: 6.00 Build 0)  -->
<!DOCTYPE svg PUBLIC "-//W3C//DTD SVG 1.1//EN" "http://www.w3.org/Graphics/SVG/1.1/DTD/svg11.dtd">
<svg version="1.1" id="Layer_1" xmlns="http://www.w3.org/2000/svg" xmlns:xlink="http://www.w3.org/1999/xlink" x="0px" y="0px"
	 width="760px" height="110px" viewBox="0 0 760 110" enable-background="new 0 0 760 110" xml:space="preserve">
<g>
	<polygon fill="#E6E6E5" points="186.94,60.752 167.735,60.752 167.735,70.661 186.94,70.661 186.94,106.694 203.58,106.694 
		203.58,70.661 222.785,70.661 222.785,60.752 203.58,60.752 	"/>
	<path fill="#E6E6E5" d="M572.19,60.752h-10.723h-2.031l-23.644,45.942l12.757-0.002l3.678-7.146h22.67l3.763,7.146h18.38
		l-23.646-45.94H572.19z M557.33,89.635l6.105-11.87l6.248,11.87H557.33z"/>
	<polygon fill="#E6E6E5" points="489.736,60.752 473.098,60.752 473.098,106.694 488.609,106.694 489.736,106.694 516.265,106.694 
		516.265,96.787 489.736,96.787 	"/>
	<polygon fill="#E6E6E5" points="658.021,89.177 631.492,61.026 631.492,60.752 615.976,60.752 615.976,106.692 631.492,106.692 
		631.492,78.329 658.021,106.475 658.021,106.692 658.228,106.692 658.271,106.742 658.3,106.692 673.536,106.692 673.536,60.752 
		658.021,60.752 	"/>
	<path fill="#E6E6E5" d="M124.254,58.984c-19.697,0-31.025,11.087-31.025,24.763c0,13.677,11.165,24.764,31.025,24.764
		c19.847,0,31.033-11.087,31.033-24.764C155.287,70.071,144.101,58.984,124.254,58.984z M139.747,83.747
		c0,3.456-1.501,6.751-4.229,9.278c-2.965,2.751-6.964,4.263-11.265,4.263c-4.291,0-8.29-1.512-11.256-4.263
		c-2.731-2.527-4.232-5.822-4.232-9.278s1.501-6.753,4.232-9.284c2.966-2.741,6.965-4.26,11.256-4.26c4.301,0,8.3,1.519,11.265,4.26
		C138.246,76.994,139.747,80.291,139.747,83.747z"/>
	<polygon fill="#E6E6E5" points="284.822,77.801 258.292,77.83 258.292,60.752 242.773,60.752 242.773,106.694 258.292,106.694 
		258.292,89.693 284.822,89.666 284.822,106.694 300.336,106.694 300.336,60.752 284.822,60.752 	"/>
	<polygon fill="#E6E6E5" points="58.119,60.752 52.165,60.752 39.016,90.447 25.864,60.752 19.912,60.752 11.477,60.752 
		4.398,60.752 4.398,106.695 19.912,106.695 19.912,79.802 33.887,106.695 44.146,106.695 58.119,79.799 58.119,106.695 
		73.633,106.695 73.633,60.752 66.554,60.752 	"/>
	<path fill="#E6E6E5" d="M448.662,74.174c0-7.427-6.021-13.445-13.448-13.445c-0.382,0-0.76,0.021-1.13,0.06l0.026-0.036h-21.413
		h-7.758h-7.761v45.942h15.519V87.601h10.823l10.366,19.094h15.513l-10.622-19.566C444.473,85.564,448.662,80.366,448.662,74.174z
		 M412.697,71.788h9.535h3.771h5.052c1.94,0,3.513,1.569,3.513,3.509c0,1.945-1.572,3.516-3.513,3.516h-5.052h-3.771h-9.535V71.788z
		"/>
	<polygon fill="#E6E6E5" points="334.431,60.752 326.112,60.752 326.112,106.694 342.752,106.694 342.752,106.648 373.947,106.648 
		373.947,94.683 342.752,94.683 342.752,88.592 363.808,88.592 363.808,78.748 342.752,78.748 342.752,72.695 373.947,72.695 
		373.947,60.729 334.431,60.729 	"/>
	<path fill="#E6E6E5" d="M726.883,60.752h-12.026h-1.125h-15.517v45.94h15.517h1.125h12.026l-0.023-0.289l0.023,0.244
		c18.367,0,28.719-10.259,28.719-22.913C755.602,71.074,745.25,60.752,726.883,60.752z M725.873,95.66h-11.017V71.788h11.017
		c6.255,0,11.748,2.837,11.748,11.946C737.621,92.84,732.374,95.66,725.873,95.66z"/>
	<g>
		<path fill="#E6E6E5" d="M356.97,9.106l-0.82,0.234c-1.095,0.273-1.563,1.017-2.853,4.144l-7.308,17.865
			c-0.548,1.329-0.938,2.658-1.212,3.831c-0.352,0.196-1.641,0.196-2.032,0c-0.273-1.173-0.703-2.502-1.25-3.831l-3.009-7.271
			h-0.039l-3.049,7.271c-0.547,1.29-1.016,2.697-1.25,3.831c-0.352,0.196-1.642,0.196-2.032,0c-0.273-1.173-0.742-2.502-1.289-3.831
			l-7.347-17.865c-1.251-3.049-1.72-3.87-2.853-4.144l-0.978-0.234c-0.195-0.04-0.234-0.196-0.234-0.431
			c0-0.273,0.039-0.469,0.078-0.586c1.524,0.039,3.126,0.117,4.611,0.117s2.774-0.078,4.299-0.117
			c0.039,0.117,0.078,0.312,0.078,0.586c0,0.234-0.039,0.391-0.273,0.431l-0.704,0.117c-0.625,0.117-0.781,0.547-0.781,0.938
			c0,0.626,0.625,2.307,1.055,3.323l6.487,16.067h0.078l3.087-7.311c0-0.156,0-0.234,0-0.352l-3.556-8.405
			c-1.329-3.166-1.759-3.87-2.813-4.144l-0.899-0.234c-0.195-0.04-0.273-0.196-0.273-0.431c0-0.273,0.039-0.469,0.078-0.586
			c1.524,0.039,2.696,0.117,4.182,0.117s2.813-0.078,4.338-0.117c0.039,0.117,0.078,0.312,0.078,0.586c0,0.234,0,0.391-0.234,0.431
			l-0.704,0.117c-0.508,0.078-0.742,0.391-0.742,0.859c0,0.782,0.664,2.463,1.055,3.401l1.876,4.535h0.039l1.837-4.535
			c0.977-2.424,1.368-4.026-0.078-4.261l-0.742-0.117c-0.234-0.04-0.273-0.196-0.273-0.431c0-0.273,0.039-0.469,0.078-0.586
			c1.484,0.039,2.188,0.117,3.438,0.117c1.211,0,2.032-0.078,3.478-0.117c0.039,0.117,0.078,0.312,0.078,0.586
			c0,0.234-0.039,0.391-0.234,0.431l-0.977,0.234c-1.056,0.234-1.603,1.056-2.892,4.144l-2.696,6.333c0,0.156,0,0.273,0,0.391
			l3.829,9.266h0.078l6.292-15.794c1.055-2.658,1.055-4.183-0.391-4.417l-0.978-0.156c-0.234-0.04-0.273-0.196-0.273-0.431
			c0-0.273,0.039-0.469,0.078-0.586c1.603,0.039,2.579,0.117,3.947,0.117c1.289,0,2.228-0.078,3.751-0.117
			c0.039,0.117,0.078,0.312,0.078,0.586C357.282,8.91,357.165,9.066,356.97,9.106z"/>
		<path fill="#E6E6E5" d="M368.973,23.688h-11.254c-0.117,0.078-0.195,0.156-0.234,0.312c-0.039,0.274-0.117,0.743-0.117,1.056
			c0,3.909,2.735,7.897,6.955,7.897c1.524,0,3.205-0.938,4.104-2.033c0.156,0.039,0.312,0.156,0.43,0.234
			c0.352,0.234,0.391,0.509,0,1.017c-1.602,2.072-3.829,3.245-6.486,3.245c-5.119,0-7.973-4.379-7.973-9.188
			c0-5.355,3.908-9.265,8.09-9.265c3.829,0,6.486,1.993,6.799,6.06C369.246,23.375,369.168,23.492,368.973,23.688z M362.369,18.176
			c-2.149,0-3.869,1.524-4.455,3.948c0.039,0.156,0.117,0.234,0.234,0.273l7.347-0.117c0.078-0.117,0.195-0.234,0.234-0.391
			C365.729,19.349,364.088,18.176,362.369,18.176z"/>
		<path fill="#E6E6E5" d="M398.247,33.695c-0.898,0.626-2.423,1.524-3.596,1.524c-1.406,0-2.109-0.859-2.501-1.954
			c-0.078-0.039-0.117-0.039-0.273-0.039c-1.758,1.485-3.126,2.189-4.963,2.189c-2.462,0-3.985-1.76-3.985-3.988
			c0-2.267,1.055-3.088,3.517-4.104c1.681-0.703,3.674-1.329,5.236-1.837c0.078-0.078,0.156-0.156,0.195-0.274v-2.893
			c0-2.268-1.562-3.245-3.009-3.245c-1.563,0-2.657,0.626-2.657,2.111c0,0.273,0,0.626,0.078,0.899
			c-0.039,0.117-0.078,0.195-0.156,0.312c-0.508,0.391-1.563,0.899-2.071,0.899c-0.391,0-0.586-0.234-0.586-0.821
			c0-1.212,0.469-1.993,1.954-3.088c1.719-1.251,3.595-2.268,5.549-2.268c2.149,0,4.299,1.329,4.299,4.261v9.031
			c0,1.016,0,2.775,1.289,2.775c0.586,0,1.056-0.431,1.446-0.431c0.234,0,0.273,0.235,0.273,0.431
			C398.286,33.344,398.286,33.539,398.247,33.695z M391.877,26.62c-0.977,0.352-2.188,0.781-3.204,1.212
			c-1.563,0.664-2.306,1.25-2.306,2.814c0,1.524,0.978,2.619,2.54,2.619c0.859,0,1.915-0.352,2.54-0.978
			c0.352-0.352,0.43-0.625,0.43-1.134V26.62z"/>
		<path fill="#E6E6E5" d="M411.888,20.834c-1.016,0-1.406-1.134-2.735-1.134c-0.82,0-1.72,0.547-2.462,1.72
			c-0.273,0.431-0.352,0.782-0.352,1.329v7.585c0,2.384,0.117,3.088,1.016,3.205l2.032,0.273c0.234,0.039,0.273,0.156,0.273,0.392
			c0,0.273-0.039,0.508-0.078,0.625c-0.781,0-3.829-0.117-4.885-0.117c-1.055,0-3.36,0.117-4.142,0.117
			c-0.039-0.117-0.078-0.312-0.078-0.586c0-0.235,0-0.353,0.234-0.392l1.328-0.234c0.899-0.117,0.899-0.899,0.899-3.283v-8.797
			c0-0.898,0-1.172-0.47-1.329l-1.367-0.391c-0.234-0.078-0.273-0.195-0.273-0.391c0-0.117,0.039-0.431,0.039-0.509
			c0.703-0.195,1.523-0.469,2.579-0.898c1.289-0.548,1.954-1.329,2.384-1.329c0.156,0,0.195,0.039,0.273,0.117l0.117,3.049
			c0.078,0.078,0.156,0.078,0.312,0.078c1.211-1.329,2.696-2.971,5.041-2.971c0.898,0,1.876,0.391,1.876,1.407
			C413.451,19.231,412.904,20.834,411.888,20.834z"/>
		<path fill="#E6E6E5" d="M429.397,23.688h-11.254c-0.117,0.078-0.195,0.156-0.234,0.312c-0.039,0.274-0.117,0.743-0.117,1.056
			c0,3.909,2.735,7.897,6.955,7.897c1.524,0,3.205-0.938,4.104-2.033c0.156,0.039,0.312,0.156,0.43,0.234
			c0.352,0.234,0.391,0.509,0,1.017c-1.602,2.072-3.829,3.245-6.486,3.245c-5.119,0-7.973-4.379-7.973-9.188
			c0-5.355,3.908-9.265,8.09-9.265c3.829,0,6.486,1.993,6.799,6.06C429.671,23.375,429.593,23.492,429.397,23.688z M422.794,18.176
			c-2.149,0-3.869,1.524-4.455,3.948c0.039,0.156,0.117,0.234,0.234,0.273l7.347-0.117c0.078-0.117,0.195-0.234,0.234-0.391
			C426.154,19.349,424.513,18.176,422.794,18.176z"/>
	</g>
	<polygon fill="#E6E6E5" points="186.94,60.752 167.735,60.752 167.735,70.661 186.94,70.661 186.94,106.694 203.58,106.694 
		203.58,70.661 222.785,70.661 222.785,60.752 203.58,60.752 	"/>
	<path fill="#E6E6E5" d="M572.19,60.752h-10.723h-2.031l-23.644,45.942l12.757-0.002l3.678-7.146h22.67l3.763,7.146h18.38
		l-23.646-45.94H572.19z M557.33,89.635l6.105-11.87l6.248,11.87H557.33z"/>
	<polygon fill="#E6E6E5" points="489.736,60.752 473.098,60.752 473.098,106.694 488.609,106.694 489.736,106.694 516.265,106.694 
		516.265,96.787 489.736,96.787 	"/>
	<polygon fill="#E6E6E5" points="658.021,89.177 631.492,61.026 631.492,60.752 615.976,60.752 615.976,106.692 631.492,106.692 
		631.492,78.329 658.021,106.475 658.021,106.692 658.228,106.692 658.271,106.742 658.3,106.692 673.536,106.692 673.536,60.752 
		658.021,60.752 	"/>
	<path fill="#E6E6E5" d="M124.254,58.984c-19.697,0-31.025,11.087-31.025,24.763c0,13.677,11.165,24.764,31.025,24.764
		c19.847,0,31.033-11.087,31.033-24.764C155.287,70.071,144.101,58.984,124.254,58.984z M139.747,83.747
		c0,3.456-1.501,6.751-4.229,9.278c-2.965,2.751-6.964,4.263-11.265,4.263c-4.291,0-8.29-1.512-11.256-4.263
		c-2.731-2.527-4.232-5.822-4.232-9.278s1.501-6.753,4.232-9.284c2.966-2.741,6.965-4.26,11.256-4.26c4.301,0,8.3,1.519,11.265,4.26
		C138.246,76.994,139.747,80.291,139.747,83.747z"/>
	<polygon fill="#E6E6E5" points="284.822,77.801 258.292,77.83 258.292,60.752 242.773,60.752 242.773,106.694 258.292,106.694 
		258.292,89.693 284.822,89.666 284.822,106.694 300.336,106.694 300.336,60.752 284.822,60.752 	"/>
	<polygon fill="#E6E6E5" points="58.119,60.752 52.165,60.752 39.016,90.447 25.864,60.752 19.912,60.752 11.477,60.752 
		4.398,60.752 4.398,106.695 19.912,106.695 19.912,79.802 33.887,106.695 44.146,106.695 58.119,79.799 58.119,106.695 
		73.633,106.695 73.633,60.752 66.554,60.752 	"/>
	<path fill="#E6E6E5" d="M448.662,74.174c0-7.427-6.021-13.445-13.448-13.445c-0.382,0-0.76,0.021-1.13,0.06l0.026-0.036h-21.413
		h-7.758h-7.761v45.942h15.519V87.601h10.823l10.366,19.094h15.513l-10.622-19.566C444.473,85.564,448.662,80.366,448.662,74.174z
		 M412.697,71.788h9.535h3.771h5.052c1.94,0,3.513,1.569,3.513,3.509c0,1.945-1.572,3.516-3.513,3.516h-5.052h-3.771h-9.535V71.788z
		"/>
	<polygon fill="#E6E6E5" points="334.431,60.752 326.112,60.752 326.112,106.694 342.752,106.694 342.752,106.648 373.947,106.648 
		373.947,94.683 342.752,94.683 342.752,88.592 363.808,88.592 363.808,78.748 342.752,78.748 342.752,72.695 373.947,72.695 
		373.947,60.729 334.431,60.729 	"/>
	<path fill="#E6E6E5" d="M726.883,60.752h-12.026h-1.125h-15.517v45.94h15.517h1.125h12.026l-0.023-0.289l0.023,0.244
		c18.367,0,28.719-10.259,28.719-22.913C755.602,71.074,745.25,60.752,726.883,60.752z M725.873,95.66h-11.017V71.788h11.017
		c6.255,0,11.748,2.837,11.748,11.946C737.621,92.84,732.374,95.66,725.873,95.66z"/>
</g>
</svg>
